<?xml version="1.0" encoding="UTF-8"?>
<svg id="Capa_2" xmlns="http://www.w3.org/2000/svg" viewBox="0 0 538.88 129.24">
  <defs>
    <style>
      .cls-1 {
        fill: none;
        stroke: #004f9f;
        stroke-miterlimit: 10;
        stroke-width: 2px;
      }

      .cls-2 {
        fill: #fff;
      }

      .cls-3 {
        fill: #878787;
      }

      .cls-4 {
        fill: #1aace2;
      }

      .cls-5 {
        fill: #004f9f;
      }
    </style>
  </defs>
  <g id="Capa_1-2" data-name="Capa_1">
    <g>
      <g>
        <path class="cls-5" d="M295.22,85.02V21.84h-31.26V0h85.42v21.84h-31.26v63.18h-22.89Z"/>
        <path class="cls-5" d="M359.18,85.02V0h81.62v21.84h-58.73v41.2h58.86v21.98h-81.75ZM389.66,51.41v-18.18h50.23v18.18h-50.23Z"/>
        <path class="cls-5" d="M491.29,85.02c-26.03,0-45-17.14-45-42.51S465.26,0,491.29,0h41.6v21.84h-43.17c-11.9,0-20.67,8.37-20.67,20.67s8.76,20.54,20.67,20.54h43.17v21.98h-41.6Z"/>
      </g>
      <g>
        <polyline class="cls-1" points=".44 97.77 532.91 97.77 532.91 123.28"/>
        <g>
          <path class="cls-2" d="M527.65,123.28c0,2.91,2.36,5.26,5.26,5.26s5.26-2.36,5.26-5.26-2.36-5.26-5.26-5.26-5.26,2.36-5.26,5.26Z"/>
          <path class="cls-5" d="M526.95,123.28c0-3.29,2.68-5.96,5.96-5.96s5.96,2.68,5.96,5.96-2.68,5.96-5.96,5.96-5.96-2.68-5.96-5.96,0,3.29,0,0ZM537.48,123.28c0-2.52-2.05-4.56-4.56-4.56s-4.56,2.05-4.56,4.56,2.05,4.56,4.56,4.56,4.56-2.05,4.56-4.56,0,2.52,0,0Z"/>
        </g>
      </g>
      <g>
        <line class="cls-1" x1="450.51" y1="97.77" x2="450.51" y2="79.2"/>
        <g>
          <path class="cls-2" d="M455.78,79.2c0-2.91-2.36-5.26-5.26-5.26s-5.26,2.36-5.26,5.26,2.36,5.26,5.26,5.26,5.26-2.36,5.26-5.26Z"/>
          <path class="cls-5" d="M456.48,79.2c0,3.29-2.68,5.96-5.96,5.96s-5.96-2.68-5.96-5.96,2.68-5.96,5.96-5.96,5.96,2.68,5.96,5.96,0-3.29,0,0ZM445.95,79.2c0,2.52,2.05,4.56,4.56,4.56s4.56-2.05,4.56-4.56-2.05-4.56-4.56-4.56-4.56,2.05-4.56,4.56,0-2.52,0,0Z"/>
        </g>
      </g>
      <g>
        <path class="cls-4" d="M66.42,7.83c.95.64,1.51,1.45,1.67,2.44.16.99-.12,1.96-.83,2.92-.56.79-1.25,1.21-2.08,1.25-.83.04-1.69-.14-2.56-.54-2.94-1.98-6.15-3.53-9.64-4.64-3.49-1.11-7.18-1.67-11.07-1.67-4.84,0-9.34.87-13.51,2.62-4.17,1.75-7.8,4.21-10.89,7.38-3.09,3.18-5.5,6.95-7.2,11.31-1.71,4.37-2.56,9.17-2.56,14.4s.87,10.3,2.62,14.7c1.74,4.4,4.18,8.19,7.32,11.37,3.13,3.17,6.76,5.59,10.89,7.26,4.13,1.67,8.57,2.5,13.33,2.5,3.89,0,7.56-.55,11.01-1.67,3.45-1.11,6.68-2.62,9.7-4.52.79-.48,1.63-.65,2.5-.54.87.12,1.63.58,2.26,1.37.63.87.87,1.83.71,2.86-.16,1.03-.67,1.79-1.55,2.26-1.98,1.27-4.33,2.48-7.02,3.63-2.7,1.15-5.56,2.04-8.57,2.68-3.02.63-6.03.95-9.05.95-5.71,0-11.09-1.03-16.13-3.1-5.04-2.06-9.48-4.98-13.33-8.75-3.85-3.77-6.89-8.27-9.11-13.51-2.22-5.24-3.33-11.07-3.33-17.5s1.09-11.86,3.27-17.02c2.18-5.16,5.18-9.66,8.99-13.51,3.81-3.85,8.25-6.84,13.33-8.99,5.08-2.14,10.51-3.21,16.31-3.21,4.52,0,8.89.64,13.09,1.91,4.21,1.27,8.01,3.06,11.43,5.36Z"/>
        <path class="cls-4" d="M92.25,84.96c-1.11,0-2-.36-2.68-1.07-.68-.71-1.01-1.55-1.01-2.5V28.06c0-.95.36-1.79,1.07-2.5s1.59-1.07,2.62-1.07,1.88.36,2.56,1.07c.67.71,1.01,1.55,1.01,2.5v17.86l-1.79.36c.24-2.78.93-5.54,2.08-8.27,1.15-2.74,2.72-5.26,4.7-7.56,1.98-2.3,4.34-4.17,7.08-5.59,2.74-1.43,5.81-2.14,9.23-2.14,1.43,0,2.82.3,4.17.89,1.35.6,2.02,1.57,2.02,2.92,0,1.19-.32,2.1-.95,2.74s-1.39.95-2.26.95c-.71,0-1.49-.2-2.32-.6-.83-.4-1.93-.6-3.27-.6-2.22,0-4.45.65-6.67,1.96-2.22,1.31-4.25,3.08-6.07,5.3-1.83,2.22-3.27,4.7-4.34,7.44-1.07,2.74-1.61,5.5-1.61,8.27v29.4c0,.95-.36,1.79-1.07,2.5s-1.55,1.07-2.5,1.07Z"/>
        <path class="cls-4" d="M162.01,86.15c-6.11,0-11.51-1.31-16.19-3.93-4.68-2.62-8.33-6.27-10.95-10.95s-3.93-10.16-3.93-16.43c0-6.74,1.33-12.5,3.99-17.26,2.66-4.76,6.11-8.43,10.36-11.01,4.24-2.58,8.75-3.87,13.51-3.87,3.49,0,6.88.62,10.18,1.84,3.29,1.23,6.23,3.06,8.81,5.48,2.58,2.42,4.64,5.38,6.19,8.87,1.55,3.49,2.4,7.54,2.56,12.14-.08.95-.48,1.77-1.19,2.44-.71.68-1.55,1.01-2.5,1.01h-47.73l-1.43-6.43h46.9l-1.55,1.43v-2.38c-.4-3.73-1.63-6.88-3.69-9.46-2.06-2.58-4.54-4.56-7.44-5.95-2.9-1.39-5.93-2.08-9.11-2.08-2.38,0-4.82.48-7.32,1.43s-4.76,2.44-6.78,4.46c-2.02,2.02-3.67,4.6-4.94,7.74-1.27,3.14-1.91,6.84-1.91,11.13,0,4.68.95,8.93,2.86,12.74s4.66,6.83,8.27,9.05c3.61,2.22,7.92,3.33,12.92,3.33,2.78,0,5.26-.4,7.44-1.19,2.18-.79,4.13-1.84,5.83-3.15,1.71-1.31,3.11-2.68,4.23-4.11.87-.71,1.71-1.07,2.5-1.07.87,0,1.61.32,2.2.95.6.64.89,1.35.89,2.14,0,.95-.4,1.79-1.19,2.5-2.38,2.86-5.48,5.34-9.29,7.44-3.81,2.1-7.98,3.16-12.5,3.16Z"/>
        <path class="cls-4" d="M251.64,24.14c1.03,0,1.88.36,2.56,1.07.67.71,1.01,1.59,1.01,2.62v53.57c0,.95-.36,1.79-1.07,2.5s-1.55,1.07-2.5,1.07c-1.11,0-1.98-.36-2.62-1.07-.64-.71-.95-1.55-.95-2.5v-14.17l2.02-.83c0,2.14-.62,4.39-1.85,6.73-1.23,2.34-2.92,4.48-5.06,6.43-2.14,1.95-4.66,3.53-7.56,4.76-2.9,1.23-6.01,1.85-9.34,1.85-5.4,0-10.22-1.39-14.46-4.17-4.25-2.78-7.58-6.59-10-11.43-2.42-4.84-3.63-10.28-3.63-16.31s1.23-11.65,3.69-16.37c2.46-4.72,5.79-8.43,10-11.13,4.21-2.7,8.93-4.05,14.17-4.05,3.41,0,6.61.6,9.58,1.79,2.98,1.19,5.57,2.82,7.8,4.88,2.22,2.06,3.97,4.42,5.24,7.08,1.27,2.66,1.9,5.42,1.9,8.27l-2.5-1.79v-15.12c0-1.03.32-1.91.95-2.62.63-.71,1.51-1.07,2.62-1.07ZM226.88,79.49c4.21,0,7.93-1.09,11.19-3.27,3.25-2.18,5.81-5.2,7.68-9.05,1.86-3.85,2.8-8.15,2.8-12.91s-.93-8.79-2.8-12.56c-1.87-3.77-4.42-6.74-7.68-8.93-3.25-2.18-6.98-3.27-11.19-3.27s-7.84,1.05-11.13,3.15c-3.29,2.1-5.87,5.02-7.74,8.75-1.87,3.73-2.8,8.02-2.8,12.86s.93,9.07,2.8,12.91c1.86,3.85,4.42,6.86,7.68,9.05,3.25,2.18,6.98,3.27,11.19,3.27Z"/>
      </g>
      <g>
        <path class="cls-3" d="M1.07,117.27c-.18,0-.33-.06-.44-.17s-.17-.26-.17-.43v-5.65c0-.17.06-.31.17-.43s.26-.17.43-.17h3.18c.17,0,.31.05.43.16.11.11.17.25.17.42,0,.14-.06.27-.17.38-.11.11-.26.17-.43.17H1.59l.09-.12v1.97l-.07-.13h2.18c.17,0,.31.05.43.16.11.11.17.25.17.41,0,.14-.06.27-.17.38-.11.11-.26.17-.43.17H1.59l.09-.09v2.37c0,.17-.06.31-.18.43-.12.11-.26.17-.43.17Z"/>
        <path class="cls-3" d="M19.46,110.42h3.28c.17,0,.31.05.43.16.11.11.17.25.17.42s-.06.3-.17.4c-.11.1-.26.15-.43.15h-2.74l.09-.17v1.91l-.08-.08h2.29c.17,0,.31.05.43.16.11.11.17.25.17.42s-.06.3-.17.4c-.11.1-.26.15-.43.15h-2.26l.05-.08v1.98l-.08-.09h2.73c.17,0,.31.06.43.17s.17.25.17.4c0,.16-.06.3-.17.4-.11.1-.26.16-.43.16h-3.28c-.17,0-.31-.06-.43-.17-.11-.11-.17-.26-.17-.43v-5.65c0-.17.06-.31.17-.43.11-.11.26-.17.43-.17Z"/>
        <path class="cls-3" d="M38.07,117.27c-.18,0-.35-.06-.49-.17-.14-.11-.22-.26-.22-.43v-5.65c0-.17.06-.31.17-.43s.26-.17.43-.17h2.82c.34,0,.66.09.95.27.3.18.54.43.72.74s.27.68.27,1.09c0,.25-.05.49-.15.72s-.24.45-.41.64c-.17.19-.37.34-.58.44v-.22c.19.1.34.21.46.35.12.13.22.28.28.43.07.15.11.32.12.49.03.16.04.31.05.43.01.12.03.23.06.31.03.08.09.15.17.2.14.08.23.21.27.37.04.16,0,.3-.11.43-.07.08-.16.14-.27.16-.11.02-.22.02-.33,0-.11-.02-.2-.05-.27-.09-.11-.07-.22-.16-.33-.29-.11-.13-.2-.3-.27-.51-.07-.22-.1-.49-.1-.83,0-.11-.02-.21-.06-.31-.04-.09-.09-.18-.17-.24-.07-.07-.16-.12-.27-.16-.11-.04-.24-.05-.39-.05h-1.98l.15-.22v2.12c0,.17-.05.31-.14.43-.09.11-.22.17-.38.17ZM38.45,113.77h2.28c.12,0,.23-.05.34-.16.11-.11.2-.25.27-.44.07-.19.11-.39.11-.61,0-.29-.08-.53-.23-.72-.15-.19-.32-.29-.49-.29h-2.26l.12-.31v2.77l-.14-.23Z"/>
        <path class="cls-3" d="M58.22,116.67c0,.17-.06.31-.19.43-.12.11-.27.17-.43.17-.18,0-.33-.06-.44-.17-.11-.11-.17-.26-.17-.43v-5.65c0-.17.06-.31.18-.43.12-.11.27-.17.45-.17.16,0,.3.06.42.17.12.11.18.26.18.43v5.65Z"/>
        <path class="cls-3" d="M75.11,111.96l-2.11,4.97c-.05.12-.12.22-.21.29-.09.07-.2.1-.31.1-.18,0-.31-.05-.39-.15-.08-.1-.13-.22-.13-.36,0-.06,0-.12.03-.19l2.43-5.85c.05-.13.13-.23.24-.3.11-.07.22-.1.35-.09.12,0,.23.03.33.1.1.07.17.16.22.29l2.41,5.73c.03.08.05.16.05.23,0,.18-.06.32-.17.42-.11.1-.24.16-.38.16-.12,0-.22-.04-.32-.11-.09-.07-.17-.17-.22-.29l-2.1-4.9.28-.06ZM73.3,115.73l.54-1.12h2.64l.19,1.12h-3.36Z"/>
        <path class="cls-3" d="M109.21,110.42c.47,0,.89.09,1.25.26s.67.42.92.74c.25.32.44.68.57,1.1s.19.86.19,1.32c0,.63-.11,1.21-.34,1.73s-.56.93-.99,1.24c-.43.31-.97.46-1.6.46h-2.34c-.17,0-.31-.06-.43-.17-.11-.11-.17-.26-.17-.43v-5.65c0-.17.06-.31.17-.43.11-.11.26-.17.43-.17h2.34ZM109.12,116.14c.41,0,.75-.11,1.01-.32.26-.21.45-.49.57-.84s.18-.73.18-1.14c0-.31-.03-.6-.1-.87-.07-.28-.18-.52-.32-.73-.14-.21-.33-.38-.55-.5s-.49-.19-.79-.19h-1.71l.1-.09v4.79l-.06-.11h1.67Z"/>
        <path class="cls-3" d="M126.78,110.42h3.28c.17,0,.31.05.43.16.11.11.17.25.17.42s-.06.3-.17.4c-.11.1-.26.15-.43.15h-2.74l.09-.17v1.91l-.08-.08h2.29c.17,0,.31.05.43.16.11.11.17.25.17.42s-.06.3-.17.4c-.11.1-.26.15-.43.15h-2.26l.05-.08v1.98l-.08-.09h2.73c.17,0,.31.06.43.17s.17.25.17.4c0,.16-.06.3-.17.4-.11.1-.26.16-.43.16h-3.28c-.17,0-.31-.06-.43-.17-.11-.11-.17-.26-.17-.43v-5.65c0-.17.06-.31.17-.43.11-.11.26-.17.43-.17Z"/>
        <path class="cls-3" d="M148.47,116.12c.17,0,.31.05.43.16.11.11.17.25.17.41s-.06.3-.17.41c-.11.11-.26.16-.43.16h-3.18c-.17,0-.31-.06-.43-.17s-.17-.26-.17-.43v-5.65c0-.17.06-.31.18-.43.12-.11.27-.17.45-.17.16,0,.3.06.42.17.12.11.18.26.18.43v5.27l-.21-.17h2.77Z"/>
        <path class="cls-3" d="M182.41,110.75c.17.08.27.22.3.4s-.02.35-.14.5c-.08.12-.19.18-.33.2-.13.01-.27-.01-.41-.08-.16-.07-.32-.13-.49-.17-.17-.04-.35-.06-.54-.06-.35,0-.67.06-.94.17-.28.11-.51.27-.71.47-.2.21-.34.45-.45.73-.1.28-.15.59-.15.93,0,.4.06.74.17,1.04.11.29.27.54.47.73.2.2.44.34.71.44.27.09.57.14.89.14.18,0,.35-.02.53-.05s.34-.09.51-.18c.14-.06.27-.09.41-.07.13.02.25.09.34.2.13.16.18.33.14.5s-.13.3-.3.38c-.17.08-.34.15-.52.21s-.36.1-.54.13c-.18.03-.37.04-.56.04-.47,0-.91-.08-1.34-.22s-.79-.37-1.12-.66c-.33-.29-.59-.66-.78-1.1-.19-.44-.28-.95-.28-1.53,0-.5.09-.96.26-1.39.17-.42.42-.79.73-1.1s.69-.55,1.12-.72c.43-.17.9-.26,1.41-.26.29,0,.57.03.84.1s.53.16.77.28Z"/>
        <path class="cls-3" d="M202.96,113.84c0,.49-.08.95-.24,1.37-.16.42-.39.8-.69,1.12-.3.32-.65.58-1.06.76s-.85.27-1.34.27-.93-.09-1.33-.27-.75-.44-1.05-.76c-.3-.32-.53-.7-.69-1.12-.16-.42-.25-.88-.25-1.37s.08-.94.25-1.37c.16-.42.39-.8.69-1.12.3-.32.65-.58,1.05-.76s.85-.27,1.33-.27.93.09,1.34.27.76.44,1.06.76c.3.32.53.7.69,1.12.16.42.24.88.24,1.37ZM201.69,113.84c0-.44-.09-.83-.26-1.19s-.42-.64-.72-.85c-.31-.21-.66-.31-1.07-.31s-.76.1-1.07.31c-.31.21-.55.49-.72.84-.17.35-.26.75-.26,1.19s.09.83.26,1.19c.17.36.41.64.72.85.31.21.66.31,1.07.31s.76-.1,1.07-.31c.31-.21.55-.49.72-.85s.26-.75.26-1.19Z"/>
        <path class="cls-3" d="M222.19,110.42c.16,0,.28.05.38.16.1.11.15.23.15.39v5.7c0,.17-.06.31-.17.43-.11.11-.26.17-.43.17-.08,0-.17-.01-.26-.04-.09-.03-.15-.07-.2-.12l-3.84-4.88.25-.16v4.66c0,.16-.05.29-.15.39-.1.1-.23.16-.4.16s-.28-.05-.38-.16c-.1-.11-.15-.24-.15-.39v-5.7c0-.17.06-.31.17-.43.11-.11.26-.17.43-.17.09,0,.19.02.28.05.1.04.17.09.22.16l3.73,4.75-.17.12v-4.54c0-.16.05-.29.15-.39.1-.1.23-.16.39-.16Z"/>
        <path class="cls-3" d="M243.39,113.84c0,.49-.08.95-.25,1.37-.16.42-.39.8-.69,1.12-.3.32-.65.58-1.06.76s-.85.27-1.34.27-.93-.09-1.33-.27-.75-.44-1.05-.76-.53-.7-.69-1.12c-.16-.42-.24-.88-.24-1.37s.08-.94.24-1.37c.16-.42.39-.8.69-1.12s.65-.58,1.05-.76.85-.27,1.33-.27.93.09,1.34.27.76.44,1.06.76c.3.32.53.7.69,1.12.16.42.25.88.25,1.37ZM242.12,113.84c0-.44-.09-.83-.26-1.19s-.42-.64-.72-.85c-.31-.21-.66-.31-1.07-.31s-.76.1-1.07.31c-.31.21-.55.49-.72.84s-.26.75-.26,1.19.09.83.26,1.19.41.64.72.85c.31.21.66.31,1.07.31s.76-.1,1.07-.31c.31-.21.55-.49.72-.85s.26-.75.26-1.19Z"/>
        <path class="cls-3" d="M262.22,110.75c.17.08.27.22.3.4.03.18-.02.35-.14.5-.08.12-.19.18-.33.2-.13.01-.27-.01-.41-.08-.16-.07-.32-.13-.49-.17s-.35-.06-.54-.06c-.35,0-.67.06-.94.17-.28.11-.51.27-.71.47-.2.21-.34.45-.44.73-.1.28-.15.59-.15.93,0,.4.06.74.17,1.04.11.29.27.54.47.73.2.2.44.34.71.44s.57.14.89.14c.18,0,.35-.02.53-.05s.35-.09.51-.18c.14-.06.27-.09.41-.07.13.02.25.09.34.2.13.16.18.33.14.5-.04.17-.14.3-.3.38-.17.08-.34.15-.52.21s-.36.1-.54.13c-.18.03-.37.04-.56.04-.47,0-.91-.08-1.34-.22-.42-.15-.8-.37-1.12-.66-.33-.29-.59-.66-.78-1.1-.19-.44-.28-.95-.28-1.53,0-.5.09-.96.26-1.39.17-.42.42-.79.73-1.1s.69-.55,1.12-.72c.43-.17.9-.26,1.41-.26.29,0,.57.03.84.1s.53.16.77.28Z"/>
        <path class="cls-3" d="M277.69,116.67c0,.17-.06.31-.19.43-.12.11-.27.17-.43.17-.18,0-.33-.06-.44-.17-.11-.11-.17-.26-.17-.43v-5.65c0-.17.06-.31.18-.43.12-.11.27-.17.45-.17.16,0,.3.06.42.17.12.11.18.26.18.43v5.65Z"/>
        <path class="cls-3" d="M292.69,110.41c.09,0,.19.02.29.07.1.05.18.11.23.19l2.38,3.66-.49-.02,2.44-3.64c.12-.18.28-.26.48-.26.16,0,.3.06.42.17.12.11.19.25.19.43v5.66c0,.17-.06.31-.17.43-.11.11-.26.17-.44.17s-.33-.06-.44-.17-.17-.26-.17-.43v-4.61l.38.09-2,3.04c-.06.07-.13.13-.22.19-.09.05-.18.08-.27.07-.08,0-.17-.02-.26-.07-.09-.05-.16-.11-.22-.19l-1.87-2.95.25-.52v4.95c0,.17-.05.31-.16.43-.11.11-.24.17-.41.17s-.3-.06-.4-.17c-.11-.11-.16-.26-.16-.43v-5.66c0-.16.06-.3.18-.42.12-.12.27-.18.44-.18Z"/>
        <path class="cls-3" d="M314.22,116.67c0,.17-.06.31-.19.43-.12.11-.27.17-.43.17-.18,0-.33-.06-.44-.17-.11-.11-.17-.26-.17-.43v-5.65c0-.17.06-.31.18-.43.12-.11.27-.17.45-.17.16,0,.3.06.42.17.12.11.18.26.18.43v5.65Z"/>
        <path class="cls-3" d="M329.19,110.42h3.28c.17,0,.31.05.43.16.11.11.17.25.17.42s-.06.3-.17.4c-.11.1-.26.15-.43.15h-2.74l.09-.17v1.91l-.08-.08h2.29c.17,0,.31.05.43.16.11.11.17.25.17.42s-.06.3-.17.4c-.11.1-.26.15-.43.15h-2.26l.05-.08v1.98l-.08-.09h2.73c.17,0,.31.06.43.17.11.11.17.25.17.4,0,.16-.06.3-.17.4-.11.1-.26.16-.43.16h-3.28c-.17,0-.31-.06-.43-.17-.11-.11-.17-.26-.17-.43v-5.65c0-.17.06-.31.17-.43.11-.11.26-.17.43-.17Z"/>
        <path class="cls-3" d="M352.29,110.42c.16,0,.28.05.38.16.1.11.15.23.15.39v5.7c0,.17-.06.31-.17.43s-.26.17-.43.17c-.08,0-.17-.01-.26-.04-.09-.03-.15-.07-.2-.12l-3.84-4.88.25-.16v4.66c0,.16-.05.29-.15.39-.1.1-.23.16-.4.16s-.28-.05-.38-.16c-.1-.11-.15-.24-.15-.39v-5.7c0-.17.06-.31.17-.43.11-.11.26-.17.43-.17.09,0,.19.02.28.05.1.04.17.09.21.16l3.73,4.75-.17.12v-4.54c0-.16.05-.29.15-.39.1-.1.23-.16.39-.16Z"/>
        <path class="cls-3" d="M367.36,111.55c-.17,0-.31-.05-.43-.16-.11-.1-.17-.24-.17-.41s.06-.3.17-.41c.11-.1.26-.15.43-.15h4.34c.17,0,.31.05.42.16.11.11.17.24.17.41s-.06.31-.17.41c-.11.1-.26.15-.42.15h-4.34ZM369.52,117.27c-.18,0-.33-.06-.45-.17-.12-.11-.18-.26-.18-.43v-5.67h1.27v5.67c0,.17-.06.31-.18.43-.12.11-.27.17-.46.17Z"/>
        <path class="cls-3" d="M392.53,113.84c0,.49-.08.95-.24,1.37-.16.42-.39.8-.69,1.12-.3.32-.65.58-1.06.76s-.85.27-1.34.27-.93-.09-1.33-.27-.75-.44-1.05-.76c-.3-.32-.53-.7-.69-1.12-.16-.42-.24-.88-.24-1.37s.08-.94.24-1.37c.16-.42.39-.8.69-1.12.3-.32.65-.58,1.05-.76s.85-.27,1.33-.27.93.09,1.34.27.76.44,1.06.76c.3.32.53.7.69,1.12.16.42.24.88.24,1.37ZM391.26,113.84c0-.44-.09-.83-.26-1.19-.18-.36-.42-.64-.72-.85-.31-.21-.66-.31-1.07-.31s-.76.1-1.07.31c-.31.21-.55.49-.72.84s-.26.75-.26,1.19.09.83.26,1.19.41.64.72.85c.31.21.66.31,1.07.31s.76-.1,1.07-.31c.31-.21.55-.49.72-.85.18-.36.26-.75.26-1.19Z"/>
        <path class="cls-3" d="M425.88,110.75c.17.08.27.22.3.4s-.02.35-.14.5c-.08.12-.19.18-.33.2-.13.01-.27-.01-.41-.08-.16-.07-.32-.13-.49-.17s-.35-.06-.54-.06c-.35,0-.67.06-.94.17-.28.11-.51.27-.71.47-.2.21-.34.45-.44.73-.1.28-.15.59-.15.93,0,.4.06.74.17,1.04.11.29.27.54.47.73.2.2.44.34.71.44s.57.14.89.14c.18,0,.35-.02.53-.05s.35-.09.51-.18c.14-.06.27-.09.41-.07.13.02.25.09.34.2.13.16.18.33.14.5-.04.17-.13.3-.3.38-.17.08-.34.15-.52.21s-.36.1-.54.13c-.18.03-.37.04-.56.04-.47,0-.91-.08-1.34-.22-.42-.15-.79-.37-1.12-.66-.33-.29-.59-.66-.78-1.1-.19-.44-.28-.95-.28-1.53,0-.5.09-.96.26-1.39.17-.42.42-.79.73-1.1s.69-.55,1.12-.72c.43-.17.9-.26,1.41-.26.29,0,.57.03.84.1s.53.16.77.28Z"/>
        <path class="cls-3" d="M443.36,117.37c-.5,0-.96-.09-1.39-.27-.43-.18-.81-.44-1.13-.76-.33-.32-.58-.7-.77-1.12-.19-.42-.28-.88-.28-1.37s.09-.94.28-1.37c.19-.42.44-.8.77-1.12.33-.32.7-.58,1.13-.76.43-.18.89-.27,1.39-.27.31,0,.6.03.89.1.29.06.55.16.79.29.1.05.17.12.22.21s.07.18.07.27c0,.16-.05.3-.16.42-.11.12-.24.19-.4.19-.05,0-.11,0-.16-.02-.06-.01-.11-.03-.16-.06-.16-.07-.34-.13-.52-.17s-.37-.06-.58-.06c-.42,0-.81.11-1.16.32-.35.21-.63.5-.83.85s-.31.75-.31,1.18.1.82.31,1.17.48.64.83.86c.35.21.74.32,1.16.32.2,0,.41-.02.65-.06s.43-.09.58-.16l-.09.29v-1.67l.17.15h-1.09c-.17,0-.31-.06-.43-.17-.11-.11-.17-.25-.17-.42s.06-.31.17-.42c.11-.11.26-.17.43-.17h1.6c.17,0,.31.06.42.17.11.11.17.26.17.43v2.07c0,.13-.03.24-.09.32-.06.08-.13.15-.21.21-.3.18-.63.33-.98.44s-.73.16-1.12.16Z"/>
        <path class="cls-3" d="M460.47,110.41c.09,0,.19.02.29.07.1.05.18.11.23.19l2.38,3.66-.49-.02,2.44-3.64c.12-.18.28-.26.48-.26.16,0,.3.06.42.17.12.11.19.25.19.43v5.66c0,.17-.06.31-.17.43-.11.11-.26.17-.44.17s-.33-.06-.44-.17-.17-.26-.17-.43v-4.61l.38.09-2,3.04c-.06.07-.13.13-.22.19-.09.05-.18.08-.27.07-.08,0-.17-.02-.26-.07-.09-.05-.16-.11-.22-.19l-1.87-2.95.25-.52v4.95c0,.17-.05.31-.16.43-.11.11-.24.17-.41.17s-.3-.06-.4-.17c-.11-.11-.16-.26-.16-.43v-5.66c0-.16.06-.3.18-.42.12-.12.27-.18.44-.18Z"/>
        <path class="cls-3" d="M484.55,116.12c.17,0,.31.05.42.16.11.11.17.25.17.41s-.06.3-.17.41c-.11.11-.26.16-.42.16h-3.18c-.17,0-.31-.06-.43-.17-.11-.11-.17-.26-.17-.43v-5.65c0-.17.06-.31.18-.43.12-.11.27-.17.45-.17.16,0,.3.06.42.17.12.11.18.26.18.43v5.27l-.22-.17h2.77Z"/>
        <path class="cls-3" d="M499.34,111.55c-.17,0-.31-.05-.43-.16-.11-.1-.17-.24-.17-.41s.06-.3.17-.41c.11-.1.26-.15.43-.15h4.34c.17,0,.31.05.42.16.11.11.17.24.17.41s-.06.31-.17.41c-.11.1-.26.15-.42.15h-4.34ZM501.5,117.27c-.18,0-.33-.06-.45-.17-.12-.11-.18-.26-.18-.43v-5.67h1.27v5.67c0,.17-.06.31-.18.43-.12.11-.27.17-.46.17Z"/>
        <path class="cls-3" d="M519.43,116.67c0,.17-.06.31-.19.43-.12.11-.27.17-.43.17-.18,0-.33-.06-.44-.17-.11-.11-.17-.26-.17-.43v-5.65c0-.17.06-.31.18-.43.12-.11.27-.17.45-.17.16,0,.3.06.42.17.12.11.18.26.18.43v5.65Z"/>
      </g>
    </g>
  </g>
</svg>