<?xml version="1.0" encoding="UTF-8"?>
<svg id="Capa_2" xmlns="http://www.w3.org/2000/svg" viewBox="0 0 490.34 79.28">
  <defs>
    <style>
      .cls-1 {
        fill: #fff;
      }
    </style>
  </defs>
  <g id="Capa_1-2" data-name="Capa_1">
    <g>
      <path class="cls-1" d="M271.65,78.23V20.1h-28.77V0h78.6v20.1h-28.77v58.13h-21.06Z"/>
      <path class="cls-1" d="M330.5,78.23V0h75.11v20.1h-54.04v37.91h54.16v20.22h-75.23ZM358.55,47.3v-16.73h46.22v16.73h-46.22Z"/>
      <path class="cls-1" d="M452.06,78.23c-23.95,0-41.4-15.77-41.4-39.12S428.11,0,452.06,0h38.28v20.1h-39.72c-10.95,0-19.02,7.7-19.02,19.02s8.06,18.9,19.02,18.9h39.72v20.22h-38.28Z"/>
    </g>
    <g>
      <path class="cls-1" d="M61.12,7.2c.88.58,1.39,1.33,1.53,2.25.15.91-.11,1.81-.77,2.68-.51.73-1.15,1.11-1.92,1.15-.77.04-1.55-.13-2.35-.49-2.7-1.82-5.66-3.25-8.87-4.27-3.21-1.02-6.61-1.53-10.19-1.53-4.45,0-8.6.8-12.43,2.41-3.83,1.61-7.17,3.87-10.02,6.79-2.85,2.92-5.06,6.39-6.63,10.41-1.57,4.02-2.35,8.43-2.35,13.25s.8,9.47,2.41,13.53c1.61,4.05,3.85,7.54,6.74,10.46,2.88,2.92,6.22,5.15,10.02,6.68,3.8,1.53,7.89,2.3,12.27,2.3,3.58,0,6.96-.51,10.13-1.53,3.18-1.02,6.15-2.41,8.93-4.16.73-.44,1.5-.6,2.3-.49.8.11,1.5.53,2.08,1.26.58.8.8,1.68.66,2.63-.15.95-.62,1.64-1.42,2.08-1.83,1.17-3.98,2.28-6.46,3.34-2.48,1.06-5.11,1.88-7.89,2.46-2.78.58-5.55.88-8.32.88-5.26,0-10.21-.95-14.84-2.85-4.64-1.9-8.73-4.58-12.27-8.05-3.54-3.47-6.34-7.61-8.38-12.43-2.04-4.82-3.07-10.19-3.07-16.1s1-10.92,3.01-15.66c2.01-4.75,4.76-8.89,8.27-12.43,3.51-3.54,7.59-6.3,12.27-8.27,4.67-1.97,9.67-2.96,15.01-2.96,4.16,0,8.18.58,12.05,1.75,3.87,1.17,7.37,2.81,10.52,4.93Z"/>
      <path class="cls-1" d="M84.89,78.18c-1.02,0-1.84-.33-2.46-.99-.62-.66-.93-1.42-.93-2.3V25.82c0-.88.33-1.64.99-2.3s1.46-.99,2.41-.99,1.73.33,2.35.99c.62.66.93,1.42.93,2.3v16.43l-1.64.33c.22-2.56.86-5.09,1.92-7.61,1.06-2.52,2.5-4.84,4.33-6.96,1.82-2.12,4-3.83,6.52-5.15,2.52-1.31,5.35-1.97,8.49-1.97,1.31,0,2.59.27,3.83.82,1.24.55,1.86,1.44,1.86,2.68,0,1.1-.29,1.94-.88,2.52s-1.28.88-2.08.88c-.66,0-1.37-.18-2.14-.55-.77-.36-1.77-.55-3.01-.55-2.04,0-4.09.6-6.13,1.81-2.04,1.21-3.91,2.83-5.59,4.87-1.68,2.04-3.01,4.33-4,6.85-.99,2.52-1.48,5.06-1.48,7.61v27.05c0,.88-.33,1.64-.99,2.3s-1.42.99-2.3.99Z"/>
      <path class="cls-1" d="M149.07,79.28c-5.62,0-10.59-1.21-14.9-3.62-4.31-2.41-7.67-5.77-10.08-10.08s-3.61-9.35-3.61-15.12c0-6.21,1.22-11.5,3.67-15.88,2.45-4.38,5.62-7.76,9.53-10.13,3.91-2.37,8.05-3.56,12.43-3.56,3.21,0,6.33.57,9.36,1.7,3.03,1.13,5.73,2.81,8.11,5.04,2.37,2.23,4.27,4.95,5.7,8.16,1.42,3.21,2.21,6.94,2.35,11.17-.07.88-.44,1.63-1.1,2.25-.66.62-1.42.93-2.3.93h-43.92l-1.31-5.92h43.16l-1.42,1.31v-2.19c-.37-3.43-1.5-6.33-3.4-8.71-1.9-2.37-4.18-4.2-6.85-5.48-2.67-1.28-5.46-1.92-8.38-1.92-2.19,0-4.44.44-6.74,1.31s-4.38,2.25-6.24,4.11c-1.86,1.86-3.38,4.24-4.55,7.12-1.17,2.88-1.75,6.3-1.75,10.24,0,4.31.88,8.21,2.63,11.72s4.29,6.28,7.61,8.32c3.32,2.04,7.28,3.07,11.88,3.07,2.56,0,4.84-.37,6.85-1.1,2.01-.73,3.8-1.7,5.37-2.9,1.57-1.21,2.87-2.46,3.89-3.78.8-.66,1.57-.99,2.3-.99.8,0,1.48.29,2.03.88.55.58.82,1.24.82,1.97,0,.88-.37,1.64-1.1,2.3-2.19,2.63-5.04,4.91-8.54,6.85-3.5,1.93-7.34,2.9-11.5,2.9Z"/>
      <path class="cls-1" d="M231.55,22.21c.95,0,1.73.33,2.35.99.62.66.93,1.46.93,2.41v49.29c0,.88-.33,1.64-.99,2.3s-1.42.99-2.3.99c-1.02,0-1.83-.33-2.41-.99-.59-.66-.88-1.42-.88-2.3v-13.03l1.86-.77c0,1.97-.57,4.04-1.7,6.19-1.13,2.15-2.68,4.13-4.66,5.92-1.97,1.79-4.29,3.25-6.96,4.38-2.67,1.13-5.53,1.7-8.6,1.7-4.97,0-9.4-1.28-13.31-3.83-3.91-2.56-6.97-6.06-9.2-10.51-2.23-4.45-3.34-9.46-3.34-15.01s1.13-10.72,3.4-15.06c2.26-4.34,5.33-7.76,9.2-10.24,3.87-2.48,8.21-3.72,13.03-3.72,3.14,0,6.08.55,8.82,1.64,2.74,1.1,5.13,2.59,7.17,4.49,2.04,1.9,3.65,4.07,4.82,6.52,1.17,2.45,1.75,4.98,1.75,7.61l-2.3-1.64v-13.91c0-.95.29-1.75.88-2.41.58-.66,1.39-.99,2.41-.99ZM208.77,73.14c3.87,0,7.3-1,10.3-3.01,2.99-2.01,5.35-4.78,7.06-8.32,1.71-3.54,2.57-7.5,2.57-11.88s-.86-8.09-2.57-11.56c-1.72-3.47-4.07-6.21-7.06-8.21-2.99-2.01-6.43-3.01-10.3-3.01s-7.21.97-10.24,2.9c-3.03,1.94-5.4,4.62-7.12,8.05-1.72,3.43-2.57,7.38-2.57,11.83s.86,8.34,2.57,11.88c1.71,3.54,4.07,6.32,7.06,8.32,2.99,2.01,6.42,3.01,10.3,3.01Z"/>
    </g>
  </g>
</svg>