<?xml version="1.0" encoding="UTF-8"?>
<svg id="Capa_1" xmlns="http://www.w3.org/2000/svg" version="1.1" viewBox="0 0 480 584">
  <!-- Generator: Adobe Illustrator 29.6.1, SVG Export Plug-In . SVG Version: 2.1.1 Build 9)  -->
  <defs>
    <style>
      .st0 {
        fill: #056378;
      }

      .st1 {
        fill: #e6f4fa;
      }

      .st2 {
        fill: #e6216a;
      }

      .st3 {
        fill: #70c9f2;
      }

      .st4 {
        fill: #2e9ebe;
      }
    </style>
  </defs>
  <path class="st1" d="M389,75.2l37.9-64.5c3.4-5.8-2.1-12.7-8.4-10.6l-223.7,75H-.4v509.1h480.9V75.2h-91.4Z"/>
  <g>
    <g>
      <path class="st2" d="M22.5,363.6h18.3v117.9h-18.3v-117.9Z"/>
      <path class="st2" d="M54.4,363.6h23l17.8,70.5h.3v-70.5h16.3v117.9h-18.8l-22-86h-.3v86h-16.3s0-117.9,0-117.9Z"/>
      <path class="st2" d="M125.5,363.6h18.3v101h30.1v16.8h-48.4v-117.9h0Z"/>
      <path class="st2" d="M180.8,453.5v-62c0-18.9,9.8-29.6,27.8-29.6s27.8,10.8,27.8,29.6v62c0,18.9-9.8,29.6-27.8,29.6s-27.8-10.8-27.8-29.6ZM218.1,454.7v-64.3c0-8.4-3.7-11.6-9.5-11.6s-9.5,3.2-9.5,11.6v64.3c0,8.4,3.7,11.6,9.5,11.6s9.5-3.2,9.5-11.6Z"/>
      <path class="st2" d="M247.4,453.5v-62c0-18.9,9.3-29.6,27.3-29.6s27.3,10.8,27.3,29.6v10.1h-17.3v-11.3c0-8.4-3.7-11.6-9.5-11.6s-9.5,3.2-9.5,11.6v64.5c0,8.4,3.7,11.5,9.5,11.5s9.5-3,9.5-11.5v-23.1h-9.2v-16.8h26.5v38.6c0,18.9-9.3,29.6-27.3,29.6s-27.3-10.8-27.3-29.6Z"/>
      <path class="st2" d="M328.1,380.4h-19.1v-16.8h56.6v16.8h-19.1v101h-18.3v-101h0Z"/>
      <path class="st2" d="M374.4,363.6h18.3v117.9h-18.3v-117.9Z"/>
      <path class="st2" d="M405.2,454.2v-63.3c0-18.2,9.3-29,27-29s27,10.8,27,29v12.5h-17.3v-13.6c0-7.8-3.7-10.9-9.2-10.9s-9.2,3.2-9.2,10.9v65.8c0,7.8,3.7,10.8,9.2,10.8s9.2-3,9.2-10.8v-18h17.3v16.7c0,18.2-9.3,29-27,29s-27-10.8-27-29h0Z"/>
    </g>
    <g>
      <path class="st0" d="M432.5,280.3c-21.4-70.9-80.8-125.3-152.7-139.6l-22.7-3.6h-32.9c-95.1,6.3-177.8,90.1-184,186.5-.5,7.7,0,15.8,0,23.8h401c.8-22-2-44.6-8.8-67.1h0ZM192.1,157.7c-16.7,18-31,38.9-38.4,62.7-5.1-.8-42.2-13.9-42.3-16.3,22.2-22.2,50.4-38.5,80.6-46.4h0ZM133.4,333H54.3c1.3-39.1,15.2-77.9,38.8-108.6,1.2-1.6,6.8-8.9,7.7-8.9l47.3,18.8c-8.8,32.1-14.5,65.2-14.8,98.7h0ZM233.6,333h-86.1c.3-32.6,5.9-64.9,14.9-96,23.4,5.5,47.3,7.6,71.2,8.7v87.3h0ZM233.6,231.5c-21.1-1.4-43.1-2.4-63.8-7.2-.7-.2-1.8-.3-2-1.2-.4-1.8,10.1-22.8,11.9-26,11.9-20.9,29.4-41,53.9-45.8v80.1ZM369.8,204.1c0,2.4-37.2,15.5-42.3,16.3-7.4-23.8-21.7-44.7-38.4-62.7,30.3,8,58.5,24.2,80.6,46.4h0ZM247.7,151.4c24.4,4.8,42,24.9,53.9,45.8,1.8,3.1,12.2,24.1,11.9,26-.2.9-1.2,1-2,1.2-20.6,4.8-42.7,5.8-63.8,7.2v-80.1h0ZM247.7,333v-87.3c23.9-1.2,47.9-3.2,71.2-8.7,9.1,31.1,14.5,63.4,14.9,96h-86.1,0ZM347.9,333c-.3-33.5-6-66.5-14.8-98.7l47.3-18.8c.9,0,6.5,7.3,7.7,8.9,23.7,30.8,37.6,69.5,38.8,108.6h-79.1Z"/>
      <path class="st0" d="M445.5,110.2v222.9H36.3V110.2h409.2M459.4,96.1H22.3v251.2h437.1V96.1h0Z"/>
    </g>
    <path class="st2" d="M300.4,341.9c-4.8-9.9-19.1-13.9-33.3-9.9-1.2.3-2.5,0-3.5-.8-8.7-7.7-20.1-12.4-32.5-12.4s-18.5,2.8-26,7.5c-1.1.7-2.6.9-3.8.3-.1,0-.3-.1-.4-.2-1.4-.6-2.4-2-2.3-3.5v-.6c0-18.9-15.2-34.3-33.9-34.3s-8.7.9-12.6,2.5c-1.8.7-3.8.4-5.3-.8-1.4-1.1-2.9-2.1-4.5-2.8-1.3-.6-2.2-1.9-2.2-3.4v-.2c0-5.7,2.4-11.1,6.3-15.1l107.4-111.2c.2-.2.3-.4.4-.7,4.6-7.5-3.3-.3-3.3-.3l-122,102.6c-3.3,2.8-8.4,2.1-10.7-1.6s-5.5-6.3-9.4-7.9c-1.4-.6-2.3-2.1-2.2-3.6,0-1.1,0-2.1,0-3.2,0-34.6-24.5-63.5-57-69.8-1.7-.3-3-1.8-3.1-3.6-.7-25.2-2.3-43.5-19.9-46.4-2.3-.4-4.3,1.4-4.3,3.7v221.2h274.9c2.8,0,4.6-2.9,3.4-5.5h0Z"/>
    <g>
      <polygon class="st3" points="178.2 100.1 216.9 130.2 391.6 28.5 178.2 100.1"/>
      <polygon class="st3" points="391.6 28.5 238.4 146.9 295.8 191.4 391.6 28.5"/>
      <polygon class="st4" points="216.9 130.2 228.7 178.5 238.4 146.9 391.6 28.5 216.9 130.2"/>
      <polygon class="st0" points="228.7 178.5 251.5 157 238.4 146.9 228.7 178.5"/>
    </g>
    <g>
      <path class="st0" d="M24,524.5c0,0-.1-.2-.1-.3v-27.7c0-.1,0-.2.1-.3s.2-.1.3-.1h3.7c.1,0,.2,0,.3.1,0,0,.1.2.1.3v27.7c0,.1,0,.2-.1.3s-.2.1-.3.1h-3.7c-.1,0-.2,0-.3-.1Z"/>
      <path class="st0" d="M44.6,496.1c0,0,.2-.1.3-.1h3.7c.1,0,.2,0,.3.1,0,0,.1.2.1.3v27.7c0,.1,0,.2-.1.3,0,0-.2.1-.3.1h-4.3c-.3,0-.4-.1-.5-.4l-6-17.4c0,0,0-.1-.1,0,0,0,0,0,0,.1v17.3c0,.1,0,.2,0,.3s-.2.1-.3.1h-3.7c-.1,0-.2,0-.3-.1,0,0-.1-.2-.1-.3v-27.7c0-.1,0-.2.1-.3s.2-.1.3-.1h4.2c.3,0,.4.1.5.4l6.1,17.3c0,0,0,.1.1,0,0,0,0,0,0-.1v-17.2c0-.1,0-.2.1-.3Z"/>
      <path class="st0" d="M65.2,496.1c0,0,.2-.1.3-.1h3.7c.1,0,.2,0,.3.1,0,0,.1.2.1.3v27.7c0,.1,0,.2-.1.3-.1,0-.2.1-.3.1h-4.3c-.3,0-.4-.1-.5-.4l-6-17.4c0,0,0-.1-.1,0,0,0,0,0,0,.1v17.3c0,.1,0,.2,0,.3s-.2.1-.3.1h-3.7c-.1,0-.2,0-.3-.1,0,0-.1-.2-.1-.3v-27.7c0-.1,0-.2.1-.3s.2-.1.3-.1h4.2c.3,0,.4.1.5.4l6.1,17.3c0,0,0,.1.1,0,0,0,.1,0,.1-.1v-17.2c0-.1,0-.2.1-.3h0Z"/>
      <path class="st0" d="M75.7,522.9c-1.4-1.4-2.1-3.3-2.1-5.7v-13.8c0-2.3.7-4.2,2.1-5.7s3.3-2.1,5.6-2.1,4.2.7,5.6,2.1c1.4,1.4,2.1,3.3,2.1,5.7v13.8c0,2.3-.7,4.2-2.1,5.7s-3.3,2.1-5.6,2.1-4.2-.7-5.6-2.1ZM83.6,519.9c.6-.6.9-1.5.9-2.5v-14.2c0-1-.3-1.9-.9-2.5s-1.3-1-2.2-1-1.7.3-2.2,1-.8,1.5-.8,2.5v14.2c0,1,.3,1.9.8,2.5s1.3,1,2.2,1,1.7-.3,2.2-1Z"/>
      <path class="st0" d="M97.7,524.2l-5.8-27.7v-.2c0-.2.1-.4.4-.4h4.1c.3,0,.5.2.5.5l3.4,19.7c0,0,0,.1.1.1s0,0,.1-.1l3.3-19.7c0-.3.2-.5.5-.5h4c.4,0,.5.2.4.5l-5.8,27.7c0,.3-.2.5-.5.5h-4.1c-.3,0-.5-.2-.5-.5h0Z"/>
      <path class="st0" d="M120.4,524.2l-.8-4.3c0-.1,0-.2-.2-.2h-5.9c-.2,0-.2,0-.2.2l-.8,4.3c0,.3-.2.5-.5.5h-3.7c-.4,0-.5-.2-.4-.5l6-27.7c0-.3.2-.5.5-.5h4.3c.3,0,.5.2.5.5l6,27.7v.2c0,.2-.1.4-.4.4h-3.8c-.3,0-.5-.2-.5-.5h0ZM114.1,516h4.5c.2,0,.2,0,.2-.2l-2.4-13c0,0,0-.1-.1-.1s-.1,0-.1.1l-2.3,13c0,.1,0,.2.2.2Z"/>
      <path class="st0" d="M128.8,522.9c-1.4-1.4-2.1-3.3-2.1-5.6v-14c0-2.3.7-4.2,2.1-5.6s3.2-2.1,5.5-2.1,4.2.7,5.6,2.1,2.1,3.2,2.1,5.6v.5c0,.1,0,.3-.1.4-.1.1-.2.2-.3.2l-3.8.2c-.3,0-.5-.2-.5-.5v-1c0-1-.3-1.7-.8-2.3-.5-.6-1.3-.9-2.1-.9s-1.6.3-2.1.9c-.5.6-.8,1.4-.8,2.3v14.7c0,1,.3,1.7.8,2.3.5.6,1.2.9,2.1.9s1.6-.3,2.1-.9c.5-.6.8-1.4.8-2.3v-1c0-.1,0-.2.1-.3s.2-.1.3-.1l3.8.2c.1,0,.2,0,.3.1,0,0,.1.2.1.3v.5c0,2.3-.7,4.2-2.1,5.6s-3.3,2.1-5.6,2.1-4.1-.7-5.5-2.1h0Z"/>
      <path class="st0" d="M145.9,524.5c0,0-.1-.2-.1-.3v-27.7c0-.1,0-.2.1-.3s.2-.1.3-.1h3.7c.1,0,.2,0,.3.1,0,0,.1.2.1.3v27.7c0,.1,0,.2-.1.3s-.2.1-.3.1h-3.7c-.1,0-.2,0-.3-.1Z"/>
      <path class="st0" d="M156.5,522.9c-1.4-1.4-2.1-3.3-2.1-5.7v-13.8c0-2.3.7-4.2,2.1-5.7s3.3-2.1,5.6-2.1,4.2.7,5.6,2.1c1.4,1.4,2.1,3.3,2.1,5.7v13.8c0,2.3-.7,4.2-2.1,5.7s-3.3,2.1-5.6,2.1-4.2-.7-5.6-2.1ZM164.3,519.9c.6-.6.9-1.5.9-2.5v-14.2c0-1-.3-1.9-.9-2.5s-1.3-1-2.2-1-1.7.3-2.2,1-.8,1.5-.8,2.5v14.2c0,1,.3,1.9.8,2.5s1.3,1,2.2,1,1.7-.3,2.2-1ZM159.8,493.2c0-.1,0-.2,0-.4l2.4-4.2c.1-.2.3-.3.6-.3h2.9c.2,0,.4,0,.4.2,0,.1,0,.3,0,.4l-3,4.2c-.1.2-.3.3-.6.3h-2.3c-.2,0-.3,0-.4-.2h0Z"/>
      <path class="st0" d="M185.4,496.1c0,0,.2-.1.3-.1h3.7c.1,0,.2,0,.3.1,0,0,.1.2.1.3v27.7c0,.1,0,.2-.1.3-.1,0-.2.1-.3.1h-4.3c-.3,0-.4-.1-.5-.4l-6-17.4c0,0,0-.1-.1,0,0,0-.1,0-.1.1v17.3c0,.1,0,.2-.1.3s-.2.1-.3.1h-3.7c-.1,0-.2,0-.3-.1,0,0-.1-.2-.1-.3v-27.7c0-.1,0-.2.1-.3s.2-.1.3-.1h4.2c.3,0,.4.1.5.4l6.1,17.3c0,0,0,.1.1,0,0,0,.1,0,.1-.1v-17.2c0-.1,0-.2.1-.3Z"/>
      <path class="st0" d="M214.9,497.8c1.4,1.5,2.1,3.4,2.1,5.8v13.4c0,1.9-.5,3.5-1.3,4.9-.9,1.3-2.1,2.3-3.7,2.8-.1,0-.2,0-.2.2v3.6c0,.1,0,.2-.1.3-.1,0-.2.1-.3.1h-3.7c-.1,0-.2,0-.3-.1-.1,0-.1-.2-.1-.3v-3.6c0-.1,0-.2-.2-.2-1.5-.5-2.8-1.5-3.6-2.8s-1.3-3-1.3-4.8v-13.4c0-2.4.7-4.3,2.1-5.8,1.4-1.5,3.2-2.2,5.4-2.2s4.1.7,5.5,2.2h0ZM212.3,503.1c0-1-.3-1.8-.8-2.5s-1.2-.9-2-.9-1.5.3-2,.9c-.5.6-.8,1.5-.8,2.5v14.4c0,1,.3,1.8.8,2.5.5.6,1.2.9,2,.9s1.5-.3,2-.9.8-1.5.8-2.5v-14.4Z"/>
      <path class="st0" d="M222.8,522.7c-1.4-1.5-2.1-3.5-2.1-6v-20.3c0-.1,0-.2.1-.3,0,0,.2-.1.3-.1h3.7c.1,0,.2,0,.3.1,0,0,.1.2.1.3v20.8c0,1.1.3,2,.8,2.7.5.7,1.3,1,2.1,1s1.6-.3,2.1-1c.5-.7.8-1.6.8-2.7v-20.8c0-.1,0-.2.1-.3,0,0,.2-.1.3-.1h3.7c.1,0,.2,0,.3.1,0,0,.1.2.1.3v20.3c0,2.5-.7,4.5-2.1,6-1.4,1.5-3.3,2.3-5.6,2.3s-4.2-.8-5.6-2.3h0Z"/>
      <path class="st0" d="M253.9,499.9c0,0-.2.1-.3.1h-8.8c-.1,0-.2,0-.2.2v7.8c0,.1,0,.2.2.2h5.2c.1,0,.2,0,.3.1,0,0,.1.2.1.3v3.2c0,.1,0,.2-.1.3s-.2.1-.3.1h-5.2c-.1,0-.2,0-.2.2v7.8c0,.1,0,.2.2.2h8.8c.1,0,.2,0,.3.1,0,0,.1.2.1.3v3.1c0,.1,0,.2-.1.3s-.2.1-.3.1h-13.2c-.1,0-.2,0-.3-.1,0,0-.1-.2-.1-.3v-27.7c0-.1,0-.2.1-.3,0,0,.2-.1.3-.1h13.2c.1,0,.2,0,.3.1,0,0,.1.2.1.3v3.1c0,.1,0,.2-.1.3h0Z"/>
      <path class="st0" d="M266.9,522.9c-1.4-1.4-2.1-3.2-2.1-5.4v-1.1c0-.1,0-.2.1-.3,0,0,.2-.1.3-.1h3.7c.1,0,.2,0,.3.1,0,0,.1.2.1.3v.8c0,1.1.3,1.9.8,2.6.5.7,1.2,1,2,1s1.5-.3,2.1-.9.8-1.4.8-2.4-.1-1.3-.5-1.8c-.3-.5-.7-1-1.3-1.5-.5-.5-1.4-1.1-2.6-2-1.4-1-2.4-1.9-3.3-2.6s-1.5-1.7-2.1-2.8c-.5-1.1-.8-2.3-.8-3.8,0-2.3.7-4.1,2-5.4s3.1-2,5.4-2,4.1.7,5.4,2.1,2.1,3.3,2.1,5.6v1c0,.1,0,.2-.1.3,0,0-.2.1-.3.1h-3.6c-.1,0-.2,0-.3-.1,0,0-.1-.2-.1-.3v-1.1c0-1.1-.3-1.9-.8-2.6s-1.2-1-2.1-1-1.5.3-2,.9c-.5.6-.8,1.4-.8,2.4s.3,1.8.8,2.5,1.6,1.6,3.3,2.8c1.6,1.2,2.9,2.2,3.7,3,.8.8,1.5,1.6,2,2.6.5.9.7,2,.7,3.3,0,2.3-.7,4.2-2.1,5.6s-3.2,2.1-5.4,2.1-4.1-.7-5.4-2h0Z"/>
      <path class="st0" d="M297.1,499.9c0,0-.2.1-.3.1h-8.8c-.1,0-.2,0-.2.2v7.8c0,.1,0,.2.2.2h5.2c.1,0,.2,0,.3.1,0,0,.1.2.1.3v3.2c0,.1,0,.2-.1.3s-.2.1-.3.1h-5.2c-.1,0-.2,0-.2.2v7.8c0,.1,0,.2.2.2h8.8c.1,0,.2,0,.3.1,0,0,.1.2.1.3v3.1c0,.1,0,.2-.1.3s-.2.1-.3.1h-13.2c-.1,0-.2,0-.3-.1,0,0-.1-.2-.1-.3v-27.7c0-.1,0-.2.1-.3,0,0,.2-.1.3-.1h13.2c.1,0,.2,0,.3.1,0,0,.1.2.1.3v3.1c0,.1,0,.2-.1.3h0Z"/>
      <path class="st0" d="M310.5,522.9c-1.4-1.4-2.1-3.3-2.1-5.6v-14c0-2.3.7-4.2,2.1-5.6,1.4-1.4,3.2-2.1,5.5-2.1s4.2.7,5.6,2.1,2.1,3.2,2.1,5.6v.5c0,.1,0,.3-.1.4,0,.1-.2.2-.3.2l-3.8.2c-.3,0-.5-.2-.5-.5v-1c0-1-.3-1.7-.8-2.3-.5-.6-1.3-.9-2.1-.9s-1.6.3-2.1.9c-.5.6-.8,1.4-.8,2.3v14.7c0,1,.3,1.7.8,2.3.5.6,1.2.9,2.1.9s1.6-.3,2.1-.9c.5-.6.8-1.4.8-2.3v-1c0-.1,0-.2.1-.3s.2-.1.3-.1l3.8.2c.1,0,.2,0,.3.1s.1.2.1.3v.5c0,2.3-.7,4.2-2.1,5.6-1.4,1.4-3.3,2.1-5.6,2.1s-4.1-.7-5.5-2.1h0Z"/>
      <path class="st0" d="M329,522.9c-1.4-1.4-2.1-3.3-2.1-5.7v-13.8c0-2.3.7-4.2,2.1-5.7s3.3-2.1,5.6-2.1,4.2.7,5.6,2.1,2.1,3.3,2.1,5.7v13.8c0,2.3-.7,4.2-2.1,5.7s-3.3,2.1-5.6,2.1-4.2-.7-5.6-2.1ZM336.9,519.9c.6-.6.9-1.5.9-2.5v-14.2c0-1-.3-1.9-.9-2.5s-1.3-1-2.2-1-1.7.3-2.2,1-.8,1.5-.8,2.5v14.2c0,1,.3,1.9.8,2.5s1.3,1,2.2,1,1.7-.3,2.2-1Z"/>
      <path class="st0" d="M359.7,496h3.7c.1,0,.2,0,.3.1,0,0,.1.2.1.3v27.7c0,.1,0,.2-.1.3s-.2.1-.3.1h-3.7c-.1,0-.2,0-.3-.1,0,0-.1-.2-.1-.3v-19.4c0-.1,0-.2,0-.2s-.1,0-.2.1l-3.5,6.5c-.1.2-.3.3-.4.3s-.2-.1-.4-.3l-3.5-6.5c0,0-.1-.1-.2-.1s0,0,0,.2v19.4c0,.1,0,.2-.1.3s-.2.1-.3.1h-3.7c-.1,0-.2,0-.3-.1,0,0-.1-.2-.1-.3v-27.7c0-.1,0-.2.1-.3,0,0,.2-.1.3-.1h3.7c.3,0,.5.1.6.3l3.9,7c0,.1.2.1.2,0l3.9-7c.1-.2.3-.3.6-.3h0Z"/>
      <path class="st0" d="M370.1,522.7c-1.4-1.5-2.1-3.5-2.1-6v-20.3c0-.1,0-.2.1-.3s.2-.1.3-.1h3.7c.1,0,.2,0,.3.1,0,0,.1.2.1.3v20.8c0,1.1.3,2,.8,2.7.5.7,1.3,1,2.1,1s1.6-.3,2.1-1c.5-.7.8-1.6.8-2.7v-20.8c0-.1,0-.2.1-.3s.2-.1.3-.1h3.7c.1,0,.2,0,.3.1,0,0,.1.2.1.3v20.3c0,2.5-.7,4.5-2.1,6-1.4,1.5-3.3,2.3-5.6,2.3s-4.2-.8-5.6-2.3h0Z"/>
      <path class="st0" d="M398.9,496.1c0,0,.2-.1.3-.1h3.7c.1,0,.2,0,.3.1,0,0,.1.2.1.3v27.7c0,.1,0,.2-.1.3,0,0-.2.1-.3.1h-4.3c-.3,0-.5-.1-.5-.4l-6-17.4c0,0,0-.1-.1,0,0,0-.1,0-.1.1v17.3c0,.1,0,.2-.1.3-.1,0-.2.1-.3.1h-3.7c-.1,0-.2,0-.3-.1,0,0-.1-.2-.1-.3v-27.7c0-.1,0-.2.1-.3,0,0,.2-.1.3-.1h4.2c.3,0,.5.1.5.4l6.1,17.3c0,0,0,.1.1,0,0,0,.1,0,.1-.1v-17.2c0-.1,0-.2.1-.3h0Z"/>
      <path class="st0" d="M407.9,524.5c0,0-.1-.2-.1-.3v-27.7c0-.1,0-.2.1-.3,0,0,.2-.1.3-.1h3.7c.1,0,.2,0,.3.1,0,0,.1.2.1.3v27.7c0,.1,0,.2-.1.3s-.2.1-.3.1h-3.7c-.1,0-.2,0-.3-.1Z"/>
      <path class="st0" d="M418.4,522.9c-1.4-1.4-2.1-3.3-2.1-5.6v-14c0-2.3.7-4.2,2.1-5.6,1.4-1.4,3.2-2.1,5.5-2.1s4.2.7,5.6,2.1,2.1,3.2,2.1,5.6v.5c0,.1,0,.3-.1.4,0,.1-.2.2-.3.2l-3.8.2c-.3,0-.5-.2-.5-.5v-1c0-1-.3-1.7-.8-2.3-.5-.6-1.3-.9-2.1-.9s-1.6.3-2.1.9c-.5.6-.8,1.4-.8,2.3v14.7c0,1,.3,1.7.8,2.3.5.6,1.2.9,2.1.9s1.6-.3,2.1-.9c.5-.6.8-1.4.8-2.3v-1c0-.1,0-.2.1-.3s.2-.1.3-.1l3.8.2c.1,0,.2,0,.3.1s.1.2.1.3v.5c0,2.3-.7,4.2-2.1,5.6-1.4,1.4-3.3,2.1-5.6,2.1s-4.1-.7-5.5-2.1h0Z"/>
      <path class="st0" d="M446,524.2l-.8-4.3c0-.1,0-.2-.2-.2h-5.9c-.2,0-.2,0-.2.2l-.8,4.3c0,.3-.2.5-.5.5h-3.7c-.4,0-.5-.2-.5-.5l6-27.7c0-.3.2-.5.5-.5h4.3c.3,0,.5.2.5.5l6,27.7v.2c0,.2-.2.4-.5.4h-3.8c-.3,0-.5-.2-.5-.5h0ZM439.8,516h4.5c.2,0,.2,0,.2-.2l-2.4-13c0,0,0-.1-.1-.1s0,0-.1.1l-2.3,13c0,.1,0,.2.2.2h0Z"/>
      <path class="st0" d="M452.8,528.2c0,0-.1-.2,0-.4l1-9.2c0-.3.2-.5.5-.5h3.2c.3,0,.5.2.4.5l-2,9.2c0,.3-.2.5-.5.5h-2.2c-.2,0-.3,0-.4-.1h0Z"/>
      <path class="st0" d="M102.8,561.5c-1.4-1.4-2.1-3.2-2.1-5.4v-1.1c0-.1,0-.2.1-.3s.2-.1.3-.1h3.7c.1,0,.2,0,.3.1,0,0,.1.2.1.3v.8c0,1.1.3,1.9.8,2.6.5.7,1.2,1,2.1,1s1.5-.3,2.1-.9c.5-.6.8-1.4.8-2.4s-.1-1.3-.4-1.8c-.3-.5-.7-1-1.3-1.5-.5-.5-1.4-1.1-2.6-2-1.4-1-2.4-1.9-3.3-2.6-.8-.8-1.5-1.7-2.1-2.8-.6-1.1-.8-2.3-.8-3.8,0-2.3.7-4.1,2-5.4,1.4-1.3,3.1-2,5.4-2s4.1.7,5.4,2.1c1.4,1.4,2.1,3.3,2.1,5.6v1c0,.1,0,.2-.1.3s-.2.1-.3.1h-3.6c-.1,0-.2,0-.3-.1,0,0-.1-.2-.1-.3v-1.1c0-1.1-.3-1.9-.8-2.6s-1.2-1-2.1-1-1.5.3-2,.9c-.5.6-.8,1.4-.8,2.4s.3,1.8.8,2.5,1.6,1.6,3.3,2.8c1.6,1.2,2.9,2.2,3.7,3,.8.8,1.5,1.6,1.9,2.6.5.9.7,2,.7,3.3,0,2.3-.7,4.2-2.1,5.6s-3.2,2.1-5.4,2.1-4.1-.7-5.4-2h0Z"/>
      <path class="st0" d="M133,538.5c-.1,0-.2.1-.3.1h-8.8c-.1,0-.2,0-.2.2v7.8c0,.1,0,.2.2.2h5.2c.1,0,.2,0,.3.1,0,0,.1.2.1.3v3.2c0,.1,0,.2-.1.3s-.2.1-.3.1h-5.2c-.1,0-.2,0-.2.2v7.8c0,.1,0,.2.2.2h8.8c.1,0,.2,0,.3.1,0,0,.1.2.1.3v3.1c0,.1,0,.2-.1.3-.1,0-.2.1-.3.1h-13.2c-.1,0-.2,0-.3-.1,0,0-.1-.2-.1-.3v-27.7c0-.1,0-.2.1-.3s.2-.1.3-.1h13.2c.1,0,.2,0,.3.1,0,0,.1.2.1.3v3.1c0,.1,0,.2-.1.3h0Z"/>
      <path class="st0" d="M146.4,561.4c-1.4-1.4-2.1-3.3-2.1-5.6v-14c0-2.3.7-4.2,2.1-5.6s3.2-2.1,5.5-2.1,4.2.7,5.6,2.1,2.1,3.2,2.1,5.6v.5c0,.1,0,.3-.1.4-.1.1-.2.2-.3.2l-3.8.2c-.3,0-.5-.2-.5-.5v-1c0-1-.3-1.7-.8-2.3-.5-.6-1.3-.9-2.1-.9s-1.6.3-2.1.9c-.5.6-.8,1.4-.8,2.3v14.7c0,1,.3,1.7.8,2.3.5.6,1.2.9,2.1.9s1.6-.3,2.1-.9c.5-.6.8-1.4.8-2.3v-1c0-.1,0-.2.1-.3s.2-.1.3-.1l3.8.2c.1,0,.2,0,.3.1,0,0,.1.2.1.3v.5c0,2.3-.7,4.2-2.1,5.6s-3.3,2.1-5.6,2.1-4.1-.7-5.5-2.1h0Z"/>
      <path class="st0" d="M174,562.8l-3.4-11.8c0-.1-.1-.2-.2-.2h-2.1c-.1,0-.2,0-.2.2v11.7c0,.1,0,.2-.1.3s-.2.1-.3.1h-3.7c-.1,0-.2,0-.3-.1,0,0-.1-.2-.1-.3v-27.7c0-.1,0-.2.1-.3s.2-.1.3-.1h7.6c1.4,0,2.7.3,3.8,1,1.1.7,1.9,1.7,2.6,3s.9,2.7.9,4.4-.3,3.2-1,4.4-1.6,2.2-2.7,2.8c-.1,0-.1.1-.1.2l4,12.3c0,0,0,.1,0,.2,0,.2-.1.4-.4.4h-3.9c-.3,0-.4-.1-.5-.4h0ZM168,538.8v8.2c0,.1,0,.2.2.2h2.5c1,0,1.8-.4,2.4-1.2s.9-1.8.9-3.1-.3-2.4-.9-3.1-1.4-1.2-2.4-1.2h-2.5c-.1,0-.2,0-.2.2Z"/>
      <path class="st0" d="M196,538.5c-.1,0-.2.1-.3.1h-8.8c-.1,0-.2,0-.2.2v7.8c0,.1,0,.2.2.2h5.2c.1,0,.2,0,.3.1,0,0,.1.2.1.3v3.2c0,.1,0,.2-.1.3,0,0-.2.1-.3.1h-5.2c-.1,0-.2,0-.2.2v7.8c0,.1,0,.2.2.2h8.8c.1,0,.2,0,.3.1,0,0,.1.2.1.3v3.1c0,.1,0,.2-.1.3-.1,0-.2.1-.3.1h-13.2c-.1,0-.2,0-.3-.1,0,0-.1-.2-.1-.3v-27.7c0-.1,0-.2.1-.3s.2-.1.3-.1h13.2c.1,0,.2,0,.3.1,0,0,.1.2.1.3v3.1c0,.1,0,.2-.1.3h0Z"/>
      <path class="st0" d="M211.4,562.8l-.8-4.3c0-.1,0-.2-.2-.2h-5.9c-.2,0-.2,0-.2.2l-.8,4.3c0,.3-.2.5-.5.5h-3.7c-.4,0-.5-.2-.5-.5l6-27.7c0-.3.2-.5.5-.5h4.3c.3,0,.5.2.5.5l6,27.7v.2c0,.2-.1.4-.5.4h-3.8c-.3,0-.5-.2-.5-.5h0ZM205.1,554.5h4.5c.2,0,.2,0,.2-.2l-2.4-13c0,0,0-.1-.1-.1s-.1,0-.1.1l-2.3,13c0,.1,0,.2.2.2h0Z"/>
      <path class="st0" d="M231.9,563c-.1,0-.1-.2-.1-.3v-11.5s-5.7-16.2-5.7-16.2c0,0,0-.1,0-.2,0-.2.1-.4.5-.4h3.9c.3,0,.5.1.6.4l3,10.5c0,0,0,.1.1.1s0,0,.1-.1l3-10.5c0-.3.3-.4.6-.4h3.9c.2,0,.3,0,.4.1,0,0,0,.2,0,.4l-5.6,16.2v.2s0,11.2,0,11.2c0,.1,0,.2-.1.3,0,0-.2.1-.3.1h-3.7c-.1,0-.2,0-.3-.1h0Z"/>
      <path class="st0" d="M254.9,561.5c-1.4-1.4-2.1-3.2-2.1-5.4v-1.1c0-.1,0-.2.1-.3,0,0,.2-.1.3-.1h3.7c.1,0,.2,0,.3.1,0,0,.1.2.1.3v.8c0,1.1.3,1.9.8,2.6.5.7,1.2,1,2,1s1.5-.3,2.1-.9.8-1.4.8-2.4-.1-1.3-.5-1.8c-.3-.5-.7-1-1.3-1.5-.5-.5-1.4-1.1-2.6-2-1.4-1-2.4-1.9-3.3-2.6s-1.5-1.7-2.1-2.8c-.5-1.1-.8-2.3-.8-3.8,0-2.3.7-4.1,2-5.4s3.1-2,5.4-2,4.1.7,5.4,2.1,2.1,3.3,2.1,5.6v1c0,.1,0,.2-.1.3,0,0-.2.1-.3.1h-3.6c-.1,0-.2,0-.3-.1,0,0-.1-.2-.1-.3v-1.1c0-1.1-.3-1.9-.8-2.6s-1.2-1-2.1-1-1.5.3-2,.9c-.5.6-.8,1.4-.8,2.4s.3,1.8.8,2.5,1.6,1.6,3.3,2.8c1.6,1.2,2.9,2.2,3.7,3,.8.8,1.5,1.6,2,2.6.5.9.7,2,.7,3.3,0,2.3-.7,4.2-2.1,5.6s-3.2,2.1-5.4,2.1-4.1-.7-5.4-2h0Z"/>
      <path class="st0" d="M285.1,538.5c0,0-.2.1-.3.1h-8.8c-.1,0-.2,0-.2.2v7.8c0,.1,0,.2.2.2h5.2c.1,0,.2,0,.3.1,0,0,.1.2.1.3v3.2c0,.1,0,.2-.1.3s-.2.1-.3.1h-5.2c-.1,0-.2,0-.2.2v7.8c0,.1,0,.2.2.2h8.8c.1,0,.2,0,.3.1,0,0,.1.2.1.3v3.1c0,.1,0,.2-.1.3s-.2.1-.3.1h-13.2c-.1,0-.2,0-.3-.1,0,0-.1-.2-.1-.3v-27.7c0-.1,0-.2.1-.3,0,0,.2-.1.3-.1h13.2c.1,0,.2,0,.3.1,0,0,.1.2.1.3v3.1c0,.1,0,.2-.1.3h0Z"/>
      <path class="st0" d="M310.1,534.5h3.7c.1,0,.2,0,.3.1,0,0,.1.2.1.3v27.7c0,.1,0,.2-.1.3s-.2.1-.3.1h-3.7c-.1,0-.2,0-.3-.1,0,0-.1-.2-.1-.3v-19.4c0-.1,0-.2,0-.2s-.1,0-.2.1l-3.5,6.5c-.1.2-.3.3-.4.3s-.2-.1-.4-.3l-3.5-6.5c0,0-.1-.1-.2-.1s0,0,0,.2v19.4c0,.1,0,.2-.1.3s-.2.1-.3.1h-3.7c-.1,0-.2,0-.3-.1,0,0-.1-.2-.1-.3v-27.7c0-.1,0-.2.1-.3,0,0,.2-.1.3-.1h3.7c.3,0,.5.1.6.3l3.9,7c0,.1.2.1.2,0l3.9-7c.1-.2.3-.3.6-.3h0Z"/>
      <path class="st0" d="M320.5,561.2c-1.4-1.5-2.1-3.5-2.1-6v-20.3c0-.1,0-.2.1-.3s.2-.1.3-.1h3.7c.1,0,.2,0,.3.1,0,0,.1.2.1.3v20.8c0,1.1.3,2,.8,2.7.5.7,1.3,1,2.1,1s1.6-.3,2.1-1c.5-.7.8-1.6.8-2.7v-20.8c0-.1,0-.2.1-.3s.2-.1.3-.1h3.7c.1,0,.2,0,.3.1,0,0,.1.2.1.3v20.3c0,2.5-.7,4.5-2.1,6-1.4,1.5-3.3,2.3-5.6,2.3s-4.2-.8-5.6-2.3h0Z"/>
      <path class="st0" d="M351.7,538.5c0,0-.2.1-.3.1h-8.8c-.1,0-.2,0-.2.2v7.8c0,.1,0,.2.2.2h5.2c.1,0,.2,0,.3.1,0,0,.1.2.1.3v3.2c0,.1,0,.2-.1.3s-.2.1-.3.1h-5.2c-.1,0-.2,0-.2.2v7.8c0,.1,0,.2.2.2h8.8c.1,0,.2,0,.3.1,0,0,.1.2.1.3v3.1c0,.1,0,.2-.1.3s-.2.1-.3.1h-13.2c-.1,0-.2,0-.3-.1,0,0-.1-.2-.1-.3v-27.7c0-.1,0-.2.1-.3,0,0,.2-.1.3-.1h13.2c.1,0,.2,0,.3.1,0,0,.1.2.1.3v3.1c0,.1,0,.2-.1.3h0Z"/>
      <path class="st0" d="M360,562.8l-5.8-27.7v-.2c0-.2.1-.4.4-.4h4.1c.3,0,.5.2.5.5l3.4,19.7c0,0,0,.1.1.1s0,0,.1-.1l3.3-19.7c0-.3.2-.5.5-.5h4c.4,0,.5.2.4.5l-5.8,27.7c0,.3-.2.5-.5.5h-4.1c-.3,0-.5-.2-.5-.5h0Z"/>
      <path class="st0" d="M388.4,538.5c0,0-.2.1-.3.1h-8.8c-.1,0-.2,0-.2.2v7.8c0,.1,0,.2.2.2h5.2c.1,0,.2,0,.3.1,0,0,.1.2.1.3v3.2c0,.1,0,.2-.1.3s-.2.1-.3.1h-5.2c-.1,0-.2,0-.2.2v7.8c0,.1,0,.2.2.2h8.8c.1,0,.2,0,.3.1,0,0,.1.2.1.3v3.1c0,.1,0,.2-.1.3s-.2.1-.3.1h-13.2c-.1,0-.2,0-.3-.1,0,0-.1-.2-.1-.3v-27.7c0-.1,0-.2.1-.3,0,0,.2-.1.3-.1h13.2c.1,0,.2,0,.3.1,0,0,.1.2.1.3v3.1c0,.1,0,.2-.1.3h0Z"/>
    </g>
  </g>
</svg>