<?xml version="1.0" encoding="UTF-8"?>
<svg id="Capa_1" xmlns="http://www.w3.org/2000/svg" version="1.1" viewBox="0 0 436.7 123.7">
  <!-- Generator: Adobe Illustrator 29.6.1, SVG Export Plug-In . SVG Version: 2.1.1 Build 9)  -->
  <defs>
    <style>
      .st0 {
        fill: #fff;
      }
    </style>
  </defs>
  <path class="st0" d="M-.2,2.8h18.3v117.9H-.2V2.8Z"/>
  <path class="st0" d="M31.8,2.8h23l17.8,70.5h.3V2.8h16.3v117.9h-18.8l-22-86h-.3v86h-16.3s0-117.9,0-117.9Z"/>
  <path class="st0" d="M102.9,2.8h18.3v101h30.1v16.8h-48.4V2.8h0Z"/>
  <path class="st0" d="M158.1,92.7V30.8c0-18.9,9.8-29.6,27.8-29.6s27.8,10.8,27.8,29.6v62c0,18.9-9.8,29.6-27.8,29.6s-27.8-10.8-27.8-29.6ZM195.4,93.9V29.6c0-8.4-3.7-11.6-9.5-11.6s-9.5,3.2-9.5,11.6v64.3c0,8.4,3.7,11.6,9.5,11.6s9.5-3.2,9.5-11.6Z"/>
  <path class="st0" d="M224.7,92.7V30.8c0-18.9,9.3-29.6,27.3-29.6s27.3,10.8,27.3,29.6v10.1h-17.3v-11.3c0-8.4-3.7-11.6-9.5-11.6s-9.5,3.2-9.5,11.6v64.5c0,8.4,3.7,11.5,9.5,11.5s9.5-3,9.5-11.5v-23.1h-9.2v-16.8h26.5v38.6c0,18.9-9.3,29.6-27.3,29.6s-27.3-10.8-27.3-29.6Z"/>
  <path class="st0" d="M305.5,19.6h-19.1V2.8h56.6v16.8h-19.1v101h-18.3V19.6h0Z"/>
  <path class="st0" d="M351.8,2.8h18.3v117.9h-18.3V2.8Z"/>
  <path class="st0" d="M382.6,93.4V30.1c0-18.2,9.3-29,27-29s27,10.8,27,29v12.5h-17.3v-13.6c0-7.8-3.7-10.9-9.2-10.9s-9.2,3.2-9.2,10.9v65.8c0,7.8,3.7,10.8,9.2,10.8s9.2-3,9.2-10.8v-18h17.3v16.7c0,18.2-9.3,29-27,29s-27-10.8-27-29h0Z"/>
</svg>